<?xml version="1.0" encoding="utf-8"?>
<!-- Generator: Adobe Illustrator 18.0.0, SVG Export Plug-In . SVG Version: 6.00 Build 0)  -->
<!DOCTYPE svg PUBLIC "-//W3C//DTD SVG 1.1//EN" "http://www.w3.org/Graphics/SVG/1.1/DTD/svg11.dtd">
<svg version="1.1" id="Layer_1" xmlns="http://www.w3.org/2000/svg" xmlns:xlink="http://www.w3.org/1999/xlink" x="0px" y="0px"
	 viewBox="0 0 200 200" enable-background="new 0 0 200 200" xml:space="preserve">
<g>
	<g>
		<rect y="100" fill="#010101" fill-opacity="0" width="100" height="100"/>
		<path fill="#010101" d="M79.2,183.3H20.8c-2.3,0-4.2,1.9-4.2,4.2s1.9,4.2,4.2,4.2h58.3c2.3,0,4.2-1.9,4.2-4.2
			S81.5,183.3,79.2,183.3z"/>
		<path fill="#010101" d="M20.8,175h0.4l17.4-1.6c1.9-0.2,3.7-1,5-2.4l37.5-37.5c3-3.2,2.9-8.3-0.3-11.3l-11.4-11.4
			c-3.1-2.9-7.9-3-11.1-0.3L20.8,148c-1.3,1.4-2.2,3.1-2.4,5l-1.8,17.4c-0.1,1.2,0.3,2.5,1.2,3.3C18.7,174.6,19.7,175,20.8,175z
			 M63.6,116.7L75,128l-8.3,8.1L55.5,125L63.6,116.7z M26.5,153.8L50,130.5l11.3,11.3l-23.3,23.3l-12.5,1.2L26.5,153.8z"/>
	</g>
</g>
<g>
	<g>
		<rect x="100" y="100" fill="#010101" fill-opacity="0" width="100" height="100"/>
		<path fill="#010101" d="M153.9,191.7H146c-3.9,0-7-3.1-7-7l0,0v-4.5c0-0.5-0.4-1-0.9-1.2c-0.5-0.3-1.2-0.3-1.7,0l-3.1,3.3
			c-2.7,2.7-7.1,2.7-9.8,0c0,0,0,0,0,0l-5.7-5.6c-1.3-1.3-2.1-3.1-2.1-5c0-1.9,0.8-3.7,2.1-5l3.1-3.1c0.3-0.5,0.3-1.1,0-1.5
			c-0.3-0.6-0.7-1.1-1.3-1.1h-4.3c-3.9,0-7-3.2-7-7V146c0-3.9,3.1-7,7-7h0h4.5c0.5,0,1-0.4,1.2-0.9c0.3-0.5,0.3-1.2,0-1.7l-3.3-3.1
			c-2.7-2.7-2.7-7.1,0-9.8c0,0,0,0,0,0l5.6-5.7c1.3-1.3,3.1-2.1,4.9-2.1c1.9,0,3.7,0.7,5.1,2.1l3.1,3.1c0.5,0.3,1.1,0.3,1.5,0
			c0.6-0.3,1.1-0.7,1.1-1.3v-4.3c0-3.9,3.2-7,7-7h8.1c3.9,0,7,3.1,7,7l0,0v4.5c0,0.5,0.4,1,0.9,1.2c0.5,0.3,1.2,0.3,1.7,0l2.9-3.3
			c2.7-2.7,7.1-2.7,9.8,0c0,0,0,0,0,0l5.7,5.6c1.3,1.3,2.1,3.1,2.1,5c0,1.9-0.7,3.7-2.1,5l-3.1,3.1c-0.3,0.5-0.3,1.1,0,1.5
			c0.3,0.6,0.7,1.1,1.3,1.1h4.5c3.8,0.2,6.7,3.3,6.7,7v8.1c0,3.9-3.1,7-7,7l0,0h-4.5c-0.5,0-1,0.4-1.2,0.9c-0.3,0.5-0.3,1.1,0,1.5
			l3.2,3.2c2.7,2.7,2.7,7.1,0,9.8c0,0,0,0,0,0l-5.5,5.5c-1.3,1.3-3.1,2.1-4.9,2.1c-1.9,0-3.6-0.8-5-2.1l-3.2-3.1
			c-0.5-0.3-1.1-0.3-1.5,0c-0.6,0.3-1.1,0.7-1.1,1.2v4.5C160.8,188.7,157.7,191.7,153.9,191.7z M147.4,183.3h5.3v-3.2
			c0-3.9,2.4-7.4,6.1-8.9c3.7-1.6,7.9-0.8,10.8,2l2.3,2.3l3.7-3.7l-2.3-2.3c-2.8-2.8-3.6-7-2-10.7c1.5-3.6,5-6,8.9-6h3.3v-5.4h-3.2
			c-3.9,0-7.4-2.4-8.9-6.1c-1.6-3.7-0.8-7.9,2-10.8l2.3-2.3l-3.7-3.7l-2.3,2.3c-4.1,3.7-10.4,3.4-14.1-0.6c-1.6-1.7-2.5-4-2.6-6.3
			v-3.2h-5.4v3.2c0,3.9-2.4,7.4-6.1,8.9c-3.7,1.6-7.9,0.8-10.8-2l-2.3-2.3l-3.7,3.7l2.3,2.3c3.7,4.1,3.4,10.4-0.6,14.1
			c-1.7,1.6-4,2.5-6.3,2.6h-3.2v5.3h3.2c3.9,0,7.4,2.4,8.9,6.1c1.6,3.7,0.8,7.9-2,10.8l-2.3,2.3l3.7,3.7l2.3-2.3
			c4.1-3.7,10.4-3.4,14.1,0.6c1.6,1.7,2.5,4,2.6,6.3L147.4,183.3z"/>
		<path fill="#010101" d="M150,164.6c-8.1,0-14.6-6.5-14.6-14.6s6.5-14.6,14.6-14.6c8.1,0,14.6,6.5,14.6,14.6S158.1,164.6,150,164.6
			z M150,143.8c-3.5,0-6.3,2.8-6.3,6.3s2.8,6.3,6.3,6.3c3.5,0,6.3-2.8,6.3-6.3S153.5,143.8,150,143.8z"/>
	</g>
</g>
</svg>
